<?xml version="1.0" encoding="UTF-8" standalone="no"?><!DOCTYPE svg PUBLIC "-//W3C//DTD SVG 1.1//EN" "http://www.w3.org/Graphics/SVG/1.1/DTD/svg11.dtd"><svg width="100%" height="100%" viewBox="0 0 175 175" version="1.1" xmlns="http://www.w3.org/2000/svg" xmlns:xlink="http://www.w3.org/1999/xlink" xml:space="preserve" xmlns:serif="http://www.serif.com/" style="fill-rule:evenodd;clip-rule:evenodd;stroke-linejoin:round;stroke-miterlimit:1.41421;"><path d="M171.231,89.415c0,47.304 -38.325,85.626 -85.629,85.626c-47.279,0 -85.602,-38.322 -85.602,-85.626c0,-47.279 38.323,-85.603 85.602,-85.603c47.304,0 85.629,38.324 85.629,85.603" style="fill-opacity:0.14902;fill-rule:nonzero;"/><path d="M175,85.603c0,47.304 -38.325,85.626 -85.629,85.626c-47.279,0 -85.602,-38.322 -85.602,-85.626c0,-47.279 38.323,-85.603 85.602,-85.603c47.304,0 85.629,38.324 85.629,85.603" style="fill:#fff;fill-rule:nonzero;"/><path d="M77.327,0.84l1.767,12.103c6.886,-0.953 13.899,-0.964 20.811,0.036l1.721,-12.109c8.248,1.181 16.117,3.537 23.431,6.892l-5.073,11.129c6.034,2.784 11.681,6.382 16.755,10.656c0.256,0.219 0.512,0.437 0.767,0.658l7.956,-9.289c6.183,5.363 11.589,11.597 16.028,18.511l-10.273,6.638c3.556,5.566 6.367,11.608 8.322,17.93c0.105,0.342 0.208,0.686 0.309,1.029l11.738,-3.434c2.222,7.618 3.414,15.676 3.414,24.013l-12.231,-0.018l0,0.257c-0.032,6.551 -0.912,13.087 -2.66,19.431c-0.096,0.344 -0.194,0.688 -0.294,1.03l11.739,3.433c-2.323,7.929 -5.762,15.38 -10.135,22.171l-10.286,-6.616l-0.037,0.055c-3.595,5.554 -7.927,10.616 -12.862,15.036c-0.268,0.237 -0.538,0.474 -0.808,0.71l8.021,9.234c-6.132,5.315 -13.027,9.775 -20.501,13.191l-5.089,-11.121l-0.076,0.034c-6.344,2.879 -13.09,4.861 -19.942,5.83l1.755,12.104c-3.993,0.571 -8.074,0.865 -12.223,0.865c-4.145,0 -8.222,-0.294 -12.209,-0.864l1.702,-12.111c-6.867,-0.994 -13.586,-2.964 -19.886,-5.823c-0.035,-0.016 -0.07,-0.032 -0.106,-0.048l-5.02,11.153c-7.521,-3.435 -14.46,-7.928 -20.624,-13.288l7.965,-9.282c-5.206,-4.55 -9.768,-9.82 -13.522,-15.618c-0.019,-0.031 -0.038,-0.06 -0.057,-0.089l-10.249,6.675c-4.399,-6.828 -7.854,-14.322 -10.18,-22.299l11.721,-3.492c-1.818,-6.291 -2.783,-12.832 -2.897,-19.351c-0.006,-0.403 -0.01,-0.807 -0.01,-1.21l-12.23,-0.02c0.004,-8.381 1.212,-16.48 3.461,-24.134l11.74,3.43c1.983,-6.706 4.93,-13.117 8.698,-18.975l-10.287,-6.616c4.432,-6.874 9.824,-13.073 15.985,-18.406l7.993,9.257l0.165,-0.143c4.988,-4.282 10.547,-7.897 16.445,-10.707c0.332,-0.158 0.665,-0.312 0.998,-0.465l-5.092,-11.12c7.323,-3.342 15.199,-5.68 23.452,-6.843Z" style="fill:#b13800;fill-rule:nonzero;"/><path d="M89.754,28.865c14.316,0.135 28.423,5.775 38.799,15.55c8.678,8.175 14.71,19.099 16.951,30.78c2.289,11.935 0.673,24.606 -4.616,35.576c-9.261,19.208 -29.861,32.377 -51.503,32.377c-14.626,0 -29.136,-5.866 -39.663,-16.024c-9.103,-8.782 -15.172,-20.631 -16.923,-33.132c-1.621,-11.565 0.382,-23.613 5.7,-33.991c9.49,-18.518 29.621,-30.938 50.518,-31.136c0.245,-0.001 0.492,-0.001 0.737,0Zm-0.727,1.762c-13.88,0.131 -27.545,5.595 -37.602,15.07c-8.395,7.909 -14.252,18.486 -16.429,29.831c-2.197,11.458 -0.684,23.617 4.328,34.175c8.919,18.79 28.962,31.683 50.061,31.683c14.153,0 28.239,-5.684 38.441,-15.53c8.89,-8.578 14.81,-20.19 16.45,-32.454c1.482,-11.089 -0.462,-22.628 -5.572,-32.598c-9.198,-17.949 -28.699,-29.986 -48.96,-30.177c-0.239,-0.001 -0.478,-0.001 -0.717,0Z" style="fill:#fff;fill-rule:nonzero;"/><circle cx="89.385" cy="86.006" r="41.78" style="fill:#fff;"/><rect x="67.907" y="100.576" width="42.954" height="4.574"/><path d="M67.923,81.64l0,-15.525l17.813,0l0,5.993l-11.867,0l0,3.804l3.273,0c5.079,0 9.22,4.14 9.22,9.219c0,5.08 -4.141,9.219 -9.22,9.219c-5.079,0 -9.219,-4.139 -9.219,-9.219l0,-0.193l5.921,0c0,1.855 1.47,3.275 3.298,3.275c1.806,0 3.274,-1.468 3.274,-3.296c0,-1.807 -1.468,-3.277 -3.274,-3.277l-9.219,0Z" style="fill-rule:nonzero;"/><path d="M98.28,85.108c0,1.829 1.467,3.297 3.298,3.297c1.854,0 3.322,-1.468 3.322,-3.297l0,-9.676c0,-1.854 -1.468,-3.323 -3.322,-3.323c-1.831,0 -3.298,1.469 -3.298,3.275l0,9.724Zm-5.924,-9.75c0,-5.103 4.094,-9.242 9.222,-9.242c5.08,0 9.268,4.139 9.268,9.268l0,9.748c0,5.128 -4.141,9.219 -9.268,9.219c-5.128,0 -9.222,-4.091 -9.222,-9.219l0,-9.774Z" style="fill-rule:nonzero;"/></svg>