<?xml version="1.0" standalone="no"?>
<!DOCTYPE svg PUBLIC "-//W3C//DTD SVG 20010904//EN"
 "http://www.w3.org/TR/2001/REC-SVG-20010904/DTD/svg10.dtd">
<svg version="1.0" xmlns="http://www.w3.org/2000/svg"
 width="700.000000pt" height="700.000000pt" viewBox="0 0 700.000000 700.000000"
 preserveAspectRatio="xMidYMid meet">
<metadata>
Created by potrace 1.11, written by Peter Selinger 2001-2013
</metadata>
<g transform="translate(0.000000,700.000000) scale(0.100000,-0.100000)"
fill="#000000" stroke="none">
<path d="M3309 6996 c-2 -2 -42 -6 -89 -10 -47 -4 -96 -8 -110 -10 -14 -3 -43
-7 -65 -10 -68 -9 -118 -16 -170 -26 -91 -17 -100 -19 -120 -24 -100 -23 -123
-28 -140 -32 -57 -11 -322 -100 -443 -149 -139 -57 -444 -210 -450 -226 -2 -5
-8 -9 -14 -9 -27 0 -306 -196 -453 -318 -84 -70 -299 -280 -391 -383 -276
-305 -546 -778 -681 -1189 -72 -220 -130 -465 -149 -635 -3 -27 -8 -61 -10
-75 -25 -145 -25 -649 0 -800 2 -14 7 -50 11 -80 15 -126 68 -361 121 -540 97
-321 279 -699 463 -960 50 -72 162 -222 170 -230 4 -3 31 -34 61 -70 78 -93
290 -302 395 -390 309 -259 643 -455 1014 -596 64 -24 122 -44 129 -44 7 0 20
-4 30 -10 36 -20 322 -94 447 -115 17 -3 41 -7 55 -9 534 -91 1045 -59 1585
100 979 288 1799 1019 2203 1964 107 252 205 580 238 800 3 19 7 42 9 50 2 8
7 42 10 75 3 33 8 71 10 85 24 140 24 574 0 755 -2 17 -7 50 -10 75 -3 25 -7
56 -10 70 -42 232 -41 226 -71 340 -34 131 -88 294 -141 430 -48 121 -161 356
-206 427 -15 24 -27 45 -27 49 0 10 -163 254 -221 330 -400 532 -952 941
-1589 1177 -182 68 -451 138 -635 167 -38 6 -81 13 -95 15 -14 2 -54 7 -90 11
-36 4 -76 9 -90 11 -31 5 -476 13 -481 9z m366 -470 c66 -3 131 -8 145 -10 14
-3 43 -7 65 -9 22 -3 75 -10 118 -17 l77 -13 1 -51 c0 -61 0 -612 -1 -642 l0
-22 -82 19 c-46 10 -103 21 -127 24 -25 4 -47 8 -50 10 -15 9 -181 19 -316 19
-154 0 -290 -9 -360 -24 -38 -8 -124 -25 -173 -35 -13 -2 -31 -7 -40 -9 -16
-5 -17 22 -17 352 l0 357 95 17 c131 22 174 27 330 34 74 4 136 7 137 8 2 2
20 1 40 0 21 -2 92 -5 158 -8z m-2308 -1062 c18 -11 126 -73 240 -138 115 -66
220 -127 234 -136 l26 -15 -74 -80 c-145 -155 -278 -347 -376 -537 -48 -94
-127 -282 -127 -301 0 -4 -7 -24 -15 -43 l-15 -36 -32 20 c-18 11 -53 31 -78
44 -25 14 -117 67 -205 118 -88 51 -190 110 -227 132 l-68 39 17 42 c113 297
316 648 488 843 6 7 30 35 54 63 l44 51 41 -24 c22 -13 56 -32 73 -42z m4424
14 c227 -266 394 -545 532 -886 l26 -62 -22 -12 c-32 -16 -70 -38 -182 -103
-55 -32 -113 -66 -130 -75 -16 -10 -86 -50 -153 -89 -68 -39 -125 -71 -126
-71 -2 0 -9 19 -16 43 -101 320 -305 656 -553 911 l-38 39 43 27 c24 15 68 40
98 57 121 67 446 256 455 264 15 14 19 12 66 -43z m-2048 -124 c336 -47 626
-168 899 -376 101 -76 264 -240 336 -337 31 -42 60 -77 65 -79 4 -2 7 -8 7
-13 0 -5 20 -40 45 -79 134 -209 237 -514 262 -775 9 -92 9 -303 1 -385 -70
-650 -467 -1211 -1058 -1496 -133 -64 -357 -137 -461 -150 -24 -3 -50 -7 -57
-10 -55 -18 -349 -25 -477 -11 -272 29 -538 118 -775 261 -47 28 -87 53 -90
56 -3 3 -39 31 -81 62 -217 161 -425 419 -550 683 -44 92 -111 275 -123 335
-3 14 -12 57 -20 95 -26 121 -30 175 -31 360 0 157 5 237 20 313 2 11 6 36 9
57 4 20 8 41 11 45 2 3 7 22 10 41 20 112 132 384 213 517 111 180 307 397
467 519 254 192 535 311 855 363 131 21 389 23 523 4z m-2488 -2491 c54 -198
170 -451 285 -628 65 -99 163 -232 181 -245 4 -3 21 -23 38 -44 24 -30 29 -42
20 -52 -6 -8 -15 -14 -20 -14 -5 0 -26 -11 -47 -23 -40 -26 -200 -119 -272
-159 -25 -14 -92 -53 -150 -87 l-105 -61 -28 33 c-106 121 -255 347 -349 527
-98 188 -198 444 -181 461 15 15 587 347 600 348 6 1 19 -25 28 -56z m4560 32
c25 -13 140 -80 257 -147 117 -68 224 -129 238 -136 14 -7 35 -21 48 -30 l22
-17 -24 -71 c-101 -287 -261 -582 -450 -828 -104 -134 -85 -122 -142 -88 -27
16 -157 91 -289 167 -132 76 -247 143 -257 149 -14 10 -9 20 46 84 57 65 206
265 206 276 0 3 14 25 30 49 17 25 30 48 30 53 0 4 6 15 13 23 40 48 170 371
213 529 5 16 9 16 59 -13z m-2760 -1684 c124 -24 155 -29 275 -37 166 -13 364
-6 495 16 33 6 76 13 95 16 19 3 61 12 94 20 32 8 60 13 63 10 9 -8 5 -698 -3
-706 -5 -5 -27 -11 -49 -14 -38 -5 -91 -12 -145 -21 -161 -27 -606 -27 -765 0
-49 8 -87 14 -130 20 -22 4 -47 8 -55 10 -13 4 -15 51 -14 357 1 194 2 354 3
356 0 2 9 1 19 -2 9 -3 62 -14 117 -25z"/>
<path d="M3847 4754 c-1 -1 -42 -4 -92 -7 -49 -3 -115 -11 -145 -17 -30 -6
-67 -13 -81 -15 -35 -6 -156 -44 -194 -60 -175 -75 -309 -161 -413 -266 -97
-99 -152 -175 -212 -290 l-49 -96 -106 -1 c-89 -1 -113 -4 -152 -24 -114 -57
-145 -208 -61 -304 52 -59 86 -70 221 -74 10 0 16 -4 12 -10 -3 -5 -6 -50 -7
-100 l-2 -90 -58 0 c-32 0 -73 -6 -91 -14 -159 -70 -166 -285 -10 -362 32 -16
66 -25 90 -24 21 1 61 2 89 1 l51 -1 28 -67 c153 -362 453 -585 890 -662 91
-16 146 -19 320 -16 116 2 226 6 245 9 112 19 158 31 184 45 148 81 161 280
25 378 -56 40 -101 45 -249 28 -350 -40 -617 50 -782 263 -17 21 -17 22 5 22
12 0 97 1 188 1 159 0 170 1 218 25 158 79 138 307 -32 363 -27 9 -113 13
-283 13 -134 -1 -245 2 -246 6 0 4 -2 49 -3 100 l-1 92 35 0 c20 1 136 1 259
2 216 1 225 1 273 25 141 71 140 277 -2 351 -44 22 -57 24 -233 25 -102 0
-186 3 -186 5 0 15 79 98 130 137 127 98 276 145 470 150 69 2 154 -2 190 -8
156 -25 228 -13 293 47 62 58 84 186 45 261 -36 68 -111 118 -194 130 -21 3
-48 8 -59 10 -47 10 -310 26 -318 19z"/>
</g>
</svg>
